<?xml version="1.0" encoding="UTF-8" standalone="no"?>
<!-- Created with Inkscape (http://www.inkscape.org/) -->

<svg
   width="512"
   height="512"
   viewBox="0 0 512 512"
   version="1.1"
   id="svg1"
   inkscape:version="1.3.2 (091e20ef0f, 2023-11-25)"
   sodipodi:docname="icon.svg"
   inkscape:export-filename="../../../../media/data/Projekty/streak/public/icon/192-mono.png"
   inkscape:export-xdpi="36"
   inkscape:export-ydpi="36"
   xmlns:inkscape="http://www.inkscape.org/namespaces/inkscape"
   xmlns:sodipodi="http://sodipodi.sourceforge.net/DTD/sodipodi-0.dtd"
   xmlns="http://www.w3.org/2000/svg"
   xmlns:svg="http://www.w3.org/2000/svg">
  <sodipodi:namedview
     id="namedview1"
     pagecolor="#505050"
     bordercolor="#eeeeee"
     borderopacity="1"
     inkscape:showpageshadow="0"
     inkscape:pageopacity="0"
     inkscape:pagecheckerboard="0"
     inkscape:deskcolor="#505050"
     inkscape:document-units="px"
     showguides="true"
     inkscape:lockguides="false"
     inkscape:zoom="0.5"
     inkscape:cx="171"
     inkscape:cy="499"
     inkscape:window-width="1536"
     inkscape:window-height="888"
     inkscape:window-x="0"
     inkscape:window-y="0"
     inkscape:window-maximized="1"
     inkscape:current-layer="layer1"
     inkscape:export-bgcolor="#00000000">
    <sodipodi:guide
       position="51.200001,460.8"
       orientation="409.60002,0"
       id="guide24"
       inkscape:locked="false" />
    <sodipodi:guide
       position="51.200001,51.199982"
       orientation="0,409.60002"
       id="guide25"
       inkscape:locked="false" />
    <sodipodi:guide
       position="460.80002,51.199982"
       orientation="-409.60002,0"
       id="guide26"
       inkscape:locked="false" />
    <sodipodi:guide
       position="460.80002,460.8"
       orientation="0,-409.60002"
       id="guide27"
       inkscape:locked="false" />
    <sodipodi:guide
       position="111.19282,400.80719"
       orientation="289.6144,0"
       id="guide15"
       inkscape:locked="false" />
    <sodipodi:guide
       position="111.19282,111.19279"
       orientation="0,289.6144"
       id="guide16"
       inkscape:locked="false" />
    <sodipodi:guide
       position="400.80721,111.19279"
       orientation="-289.6144,0"
       id="guide17"
       inkscape:locked="false" />
    <sodipodi:guide
       position="400.80721,400.80719"
       orientation="0,-289.6144"
       id="guide18"
       inkscape:locked="false" />
  </sodipodi:namedview>
  <defs
     id="defs1" />
  <g
     inkscape:groupmode="layer"
     id="layer2"
     inkscape:label="Background">
    <rect
       style="display:none;fill:#000000;stroke-width:90.5148;stroke-linecap:square"
       id="rect18"
       width="724.11871"
       height="724.11871"
       x="-111.99727"
       y="-106.05938"
       transform="matrix(0.70706637,0,0,0.70706637,79.1895,74.99102)" />
    <circle
       style="display:none;fill:#000000;fill-opacity:1;stroke:none;stroke-width:0.878507;stroke-linecap:square;stroke-dasharray:none;stroke-opacity:1"
       id="path17"
       cx="256"
       cy="256"
       r="175.7923" />
  </g>
  <g
     inkscape:label="Monochrome"
     inkscape:groupmode="layer"
     id="g28"
     transform="matrix(0.68806012,0,0,0.68806012,84.108601,75.96414)"
     style="display:none">
    <path
       id="path23"
       style="fill:#000000;fill-opacity:1;stroke:none;stroke-width:47.6422;stroke-linecap:square;stroke-opacity:1"
       d="m 250.06211,472.11437 c -117.8744,0 -246.2046813,-120.41855 -123.74419,-369.64882 3.38423,39.49241 11.75127,35.11323 31.047,12.91683 21.03036,-24.191783 50.24751,-56.27315 63.8514,-64.182391 -0.37277,15.048768 12.22761,6.619781 28.84579,0 0,0 24.52244,8.465849 51.14791,30.891147 8.36734,7.047384 18.811,-2.804484 16.27193,-23.226485 35.71384,15.053936 51.69683,83.949119 64.65572,109.411469 22.15211,43.52571 44.65782,11.26254 48.66513,-17.10367 31.94883,101.69191 -7.08546,320.94192 -180.74069,320.94192 z"
       sodipodi:nodetypes="scsccscscs" />
    <path
       id="path24"
       style="fill:#ffffff;fill-opacity:1;stroke:none;stroke-width:47.6422;stroke-linecap:square;stroke-opacity:1"
       d="m 407.86175,303.00037 c 0,87.15034 -70.6493,157.79964 -157.79964,157.79964 -87.15034,0 -157.799645,-70.6493 -157.799645,-157.79964 0,-157.79964 157.799645,-251.800381 157.799645,-251.800381 0,0 157.79964,94.000741 157.79964,251.800381 z"
       sodipodi:nodetypes="ssscs" />
    <path
       id="path25"
       style="fill:#000000;fill-opacity:1;stroke:none;stroke-width:43.4487;stroke-linecap:square;stroke-opacity:1"
       d="m 393.9719,298.8633 c 0,79.47918 -64.4306,143.90979 -143.90979,143.90979 -79.47919,0 -143.90979,-64.43061 -143.90979,-143.90979 0,-143.90979 143.90979,-247.663311 143.90979,-247.663311 0,0 97.26546,70.124721 131.86901,175.036261 4.33625,13.14671 7.68851,26.83968 9.74207,41.00937 1.49223,10.2964 2.29871,20.84453 2.29871,31.61768 z"
       sodipodi:nodetypes="ssscscs" />
    <path
       id="path26"
       style="fill:#f2f2f2;fill-opacity:1;stroke:none;stroke-width:30.5756;stroke-linecap:square;stroke-opacity:1"
       d="m 331.82648,303.00037 c 0,94.23201 -163.52874,92.00052 -163.52874,0 0,-101.27167 81.76437,-220.56839 81.76437,-220.56839 0,0 81.76437,119.29672 81.76437,220.56839 z"
       sodipodi:nodetypes="sscs" />
    <path
       id="path27"
       style="fill:#808080;fill-opacity:1;stroke:none;stroke-width:19.7745;stroke-linecap:square;stroke-opacity:1"
       d="m 302.94259,303.00037 c 0,73.93263 -105.76096,73.93263 -105.76096,0 0,-65.49668 52.88048,-108.54073 52.88048,-220.56839 0,112.02766 52.88048,155.07171 52.88048,220.56839 z"
       sodipodi:nodetypes="sscs" />
    <path
       id="path28"
       style="fill:#ffffff;stroke-width:183.619;stroke-linecap:square"
       d="m 331.82647,303.00037 c 0,45.15721 -36.60715,73.27859 -81.76436,73.27859 -45.15721,0 -81.76437,-28.12138 -81.76437,-73.27859 0,-45.15722 36.60715,-81.76437 81.76437,-81.76437 45.15721,0 81.76436,36.60716 81.76436,81.76437 z"
       sodipodi:nodetypes="sssss" />
    <circle
       style="fill:#000000;fill-opacity:1;stroke:none;stroke-width:101.015;stroke-linecap:square"
       id="circle28"
       cx="250.0621"
       cy="303.00037"
       r="44.981529" />
  </g>
  <g
     inkscape:label="Icon"
     inkscape:groupmode="layer"
     id="layer1"
     transform="matrix(0.70706637,0,0,0.70706637,79.1895,74.99102)"
     style="display:inline">
    <path
       id="path7"
       style="fill:#bf604b;fill-opacity:1;stroke:none;stroke-width:47.6422;stroke-linecap:square;stroke-opacity:1"
       d="m 250.06211,460.80001 c -117.8744,0 -219.380344,-121.72741 -123.74419,-358.33446 3.38423,39.49241 20.23704,43.599 39.53277,21.4026 21.03036,-24.191787 41.76174,-64.75892 55.36563,-72.668161 -0.37277,15.048768 12.22761,6.619781 28.84579,0 0,0 24.52244,8.465849 51.14791,30.891147 8.36734,7.047384 18.811,-2.804484 16.27193,-23.226485 35.71384,15.053936 40.38247,89.606299 53.34136,115.068649 22.15211,43.52571 55.97218,5.60536 59.97949,-22.76085 24.05932,54.35484 -7.08546,309.62756 -180.74069,309.62756 z"
       sodipodi:nodetypes="scsccscscs" />
    <path
       id="path1"
       style="fill:#e2816e;fill-opacity:1;stroke:none;stroke-width:47.6422;stroke-linecap:square;stroke-opacity:1"
       d="m 407.86175,303.00037 c 0,87.15034 -70.6493,157.79964 -157.79964,157.79964 -87.15034,0 -157.799645,-70.6493 -157.799645,-157.79964 0,-157.79964 157.799645,-251.800381 157.799645,-251.800381 0,0 157.79964,94.000741 157.79964,251.800381 z"
       sodipodi:nodetypes="ssscs" />
    <path
       id="path3"
       style="fill:#f3a379;fill-opacity:1;stroke:none;stroke-width:43.4487;stroke-linecap:square;stroke-opacity:1"
       d="m 393.9719,298.8633 c 0,79.47918 -64.4306,143.90979 -143.90979,143.90979 -79.47919,0 -143.90979,-64.43061 -143.90979,-143.90979 0,-143.90979 143.90979,-247.663311 143.90979,-247.663311 0,0 97.26546,70.124721 131.86901,175.036261 4.33625,13.14671 7.68851,26.83968 9.74207,41.00937 1.49223,10.2964 2.29871,20.84453 2.29871,31.61768 z"
       sodipodi:nodetypes="ssscscs" />
    <path
       id="path4"
       style="fill:#ffdecd;fill-opacity:1;stroke:none;stroke-width:30.5756;stroke-linecap:square;stroke-opacity:1"
       d="m 331.82648,303.00037 c 0,94.23201 -163.52874,92.00052 -163.52874,0 0,-101.27167 81.76437,-220.56839 81.76437,-220.56839 0,0 81.76437,119.29672 81.76437,220.56839 z"
       sodipodi:nodetypes="sscs" />
    <path
       id="path6"
       style="fill:#ffffff;fill-opacity:1;stroke:none;stroke-width:19.7745;stroke-linecap:square;stroke-opacity:1"
       d="m 302.94259,303.00037 c 0,73.93263 -105.76096,73.93263 -105.76096,0 0,-65.49668 52.88048,-108.54073 52.88048,-220.56839 0,112.02766 52.88048,155.07171 52.88048,220.56839 z"
       sodipodi:nodetypes="sscs" />
    <path
       id="path2"
       style="fill:#dbdcf0;stroke-width:183.619;stroke-linecap:square"
       d="m 331.82647,303.00037 c 0,45.15721 -36.60715,73.27859 -81.76436,73.27859 -45.15721,0 -81.76437,-28.12138 -81.76437,-73.27859 0,-45.15722 36.60715,-81.76437 81.76437,-81.76437 45.15721,0 81.76436,36.60716 81.76436,81.76437 z"
       sodipodi:nodetypes="sssss" />
    <circle
       style="fill:#ffffff;fill-opacity:1;stroke:none;stroke-width:101.015;stroke-linecap:square"
       id="circle6"
       cx="250.0621"
       cy="303.00037"
       r="44.981529" />
  </g>
</svg>
