<?xml version="1.0" encoding="UTF-8" standalone="no"?>
<!-- Created with Inkscape (http://www.inkscape.org/) -->

<svg
   width="1024"
   height="1024"
   viewBox="0 0 1024 1024"
   version="1.1"
   id="svg1"
   xmlns="http://www.w3.org/2000/svg"
   xmlns:svg="http://www.w3.org/2000/svg">
  <defs
     id="defs1" />
  <g
     id="layer1"
     transform="matrix(2.4999999,0,0,2.4999999,-129.52787,-127.99997)"
     style="display:inline">
    <path
       id="path7"
       style="fill:#bf604b;fill-opacity:1;stroke:none;stroke-width:47.6422;stroke-linecap:square;stroke-opacity:1"
       d="m 256.61115,460.80001 c -117.8744,0 -219.380344,-121.72741 -123.74419,-358.33446 3.38423,39.49241 20.23704,43.599 39.53277,21.4026 21.03036,-24.191787 41.76174,-64.75892 55.36563,-72.668161 -0.37277,15.048768 12.22761,6.619781 28.84579,0 0,0 24.52244,8.465849 51.14791,30.891147 8.36734,7.047384 18.811,-2.804484 16.27193,-23.226485 35.71384,15.053936 40.38247,89.606299 53.34136,115.068649 22.15211,43.52571 55.97218,5.60536 59.97949,-22.76085 24.05932,54.35484 -7.08546,309.62756 -180.74069,309.62756 z" />
    <path
       id="path1"
       style="fill:#e2816e;fill-opacity:1;stroke:none;stroke-width:47.6422;stroke-linecap:square;stroke-opacity:1"
       d="m 414.41079,303.00037 c 0,87.15034 -70.6493,157.79964 -157.79964,157.79964 -87.15034,0 -157.799645,-70.6493 -157.799645,-157.79964 0,-157.79964 157.799645,-251.800381 157.799645,-251.800381 0,0 157.79964,94.000741 157.79964,251.800381 z" />
    <path
       id="path3"
       style="fill:#f3a379;fill-opacity:1;stroke:none;stroke-width:43.4487;stroke-linecap:square;stroke-opacity:1"
       d="m 400.52094,298.8633 c 0,79.47918 -64.4306,143.90979 -143.90979,143.90979 -79.47919,0 -143.90979,-64.43061 -143.90979,-143.90979 0,-143.90979 143.90979,-247.663311 143.90979,-247.663311 0,0 97.26546,70.124721 131.86901,175.036261 4.33625,13.14671 7.68851,26.83968 9.74207,41.00937 1.49223,10.2964 2.29871,20.84453 2.29871,31.61768 z" />
    <path
       id="path4"
       style="fill:#ffdecd;fill-opacity:1;stroke:none;stroke-width:30.5756;stroke-linecap:square;stroke-opacity:1"
       d="m 338.37552,303.00037 c 0,94.23201 -163.52874,92.00052 -163.52874,0 0,-101.27167 81.76437,-220.56839 81.76437,-220.56839 0,0 81.76437,119.29672 81.76437,220.56839 z" />
    <path
       id="path6"
       style="fill:#ffffff;fill-opacity:1;stroke:none;stroke-width:19.7745;stroke-linecap:square;stroke-opacity:1"
       d="m 309.49163,303.00037 c 0,73.93263 -105.76096,73.93263 -105.76096,0 0,-65.49668 52.88048,-108.54073 52.88048,-220.56839 0,112.02766 52.88048,155.07171 52.88048,220.56839 z" />
    <path
       id="path2"
       style="fill:#dbdcf0;stroke-width:183.619;stroke-linecap:square"
       d="m 338.37551,303.00037 c 0,45.15721 -36.60715,73.27859 -81.76436,73.27859 -45.15721,0 -81.76437,-28.12138 -81.76437,-73.27859 0,-45.15722 36.60715,-81.76437 81.76437,-81.76437 45.15721,0 81.76436,36.60716 81.76436,81.76437 z" />
    <circle
       style="fill:#ffffff;fill-opacity:1;stroke:none;stroke-width:101.015;stroke-linecap:square"
       id="circle6"
       cx="256.61115"
       cy="303.00037"
       r="44.981529" />
  </g>
</svg>
