<?xml version="1.0" encoding="UTF-8" standalone="no"?>
<!-- Created with Inkscape (http://www.inkscape.org/) -->

<svg
   width="512"
   height="512"
   viewBox="0 0 512 512"
   version="1.1"
   id="svg1"
   xmlns="http://www.w3.org/2000/svg"
   xmlns:svg="http://www.w3.org/2000/svg">
  <defs
     id="defs1" />
  <g
     id="layer2">
    <circle
       style="fill:#ffffff;fill-opacity:1;stroke:none;stroke-width:1.02341;stroke-linecap:square;stroke-dasharray:none;stroke-opacity:1"
       id="path17"
       cx="256"
       cy="256"
       r="204.78831" />
  </g>
  <g
     id="layer1"
     transform="matrix(0.84746541,0,0,0.84746541,41.721885,14.503858)">
    <path
       id="path7"
       style="fill:#bf604b;fill-opacity:1;stroke:none;stroke-width:47.6422;stroke-linecap:square;stroke-opacity:1"
       d="m 252.84586,460.80001 c -151.68021,0 -204.80001,-157.79964 -123.74419,-358.33446 3.38423,39.49241 33.82282,27.97091 39.53277,21.4026 21.03035,-24.191792 41.76174,-64.75892 55.36563,-72.668161 0.0217,20.374188 12.22761,6.619781 28.84579,0 0,0 21.69385,11.294438 48.31932,33.719736 8.36734,7.047384 21.63959,-5.633073 19.10052,-26.055074 35.71384,15.053936 40.38247,89.606299 53.34136,115.068649 17.11339,33.62535 55.97218,5.60536 59.97949,-22.76085 24.05932,54.35484 9.48251,309.62756 -180.74069,309.62756 z" />
    <path
       id="path1"
       style="fill:#e2816e;fill-opacity:1;stroke:none;stroke-width:47.6422;stroke-linecap:square;stroke-opacity:1"
       d="m 410.6455,303.00037 c 0,87.15034 -70.6493,157.79964 -157.79964,157.79964 -87.15034,0 -157.799643,-70.6493 -157.799643,-157.79964 0,-157.79964 157.799643,-251.800381 157.799643,-251.800381 0,0 157.79964,94.000741 157.79964,251.800381 z" />
    <path
       id="path3"
       style="fill:#f3a379;fill-opacity:1;stroke:none;stroke-width:43.4487;stroke-linecap:square;stroke-opacity:1"
       d="m 396.75565,298.8633 c 0,79.47918 -64.4306,143.90979 -143.90979,143.90979 -79.47919,0 -143.90979,-64.43061 -143.90979,-143.90979 0,-143.90979 143.90979,-247.663311 143.90979,-247.663311 0,0 97.26546,70.124721 131.86901,175.036261 4.33625,13.14671 7.68851,26.83968 9.74207,41.00937 1.49223,10.2964 2.29871,20.84453 2.29871,31.61768 z" />
    <path
       id="path4"
       style="fill:#ffdecd;fill-opacity:1;stroke:none;stroke-width:30.5756;stroke-linecap:square;stroke-opacity:1"
       d="m 334.61023,303.00037 c 0,114.31543 -163.52874,114.31543 -163.52874,0 0,-101.27167 81.76437,-220.56839 81.76437,-220.56839 0,0 81.76437,119.29672 81.76437,220.56839 z" />
    <path
       id="path6"
       style="fill:#ffffff;fill-opacity:1;stroke:none;stroke-width:19.7745;stroke-linecap:square;stroke-opacity:1"
       d="m 305.72634,303.00037 c 0,73.93263 -105.76096,73.93263 -105.76096,0 0,-65.49668 52.88048,-108.54073 52.88048,-220.56839 0,112.02766 52.88048,155.07171 52.88048,220.56839 z" />
    <circle
       style="fill:#dbdcf0;fill-opacity:1;stroke:none;stroke-width:183.619;stroke-linecap:square"
       id="path2"
       cx="252.84586"
       cy="303.00037"
       r="81.764366" />
    <circle
       style="fill:#ffffff;fill-opacity:1;stroke:none;stroke-width:101.015;stroke-linecap:square"
       id="circle6"
       cx="252.84586"
       cy="303.00037"
       r="44.981529" />
  </g>
</svg>
